HIERARCHY
ROOT Hips
{
  OFFSET 38.6237 98.8912 2.99592
  CHANNELS 6 Xposition Yposition Zposition Zrotation Xrotation Yrotation
  JOINT spine
  {
    OFFSET 0 8.30104 0.477351
    CHANNELS 3 Zrotation Xrotation Yrotation
    JOINT spine1
    {
      OFFSET 0 10.4565 0
      CHANNELS 3 Zrotation Xrotation Yrotation
      JOINT spine2
      {
        OFFSET 0 10.0192 0
        CHANNELS 3 Zrotation Xrotation Yrotation
        JOINT Neck
        {
          OFFSET 0 25.7235 1.22641
          CHANNELS 3 Zrotation Xrotation Yrotation
          JOINT Head
          {
            OFFSET 0 7.77175 0
            CHANNELS 3 Zrotation Xrotation Yrotation
            End Site
            {
              OFFSET 0 18.812 -6.20394
            }
          }
        }
        JOINT RightShoulder
        {
          OFFSET -4.2188 10.82 -0.587439
          CHANNELS 3 Zrotation Xrotation Yrotation
          JOINT RightArm
          {
            OFFSET 0 14.1914 0
            CHANNELS 3 Zrotation Xrotation Yrotation
            JOINT RightArmRoll
            {
              OFFSET 0 7.16408 0
              CHANNELS 3 Zrotation Xrotation Yrotation
              JOINT RightForeArm
              {
                OFFSET 0 20.8665 0
                CHANNELS 3 Zrotation Xrotation Yrotation
                JOINT RightForeArmRoll
                {
                  OFFSET 0 8.03921 0
                  CHANNELS 3 Zrotation Xrotation Yrotation
                  JOINT RightHand
                  {
                    OFFSET 0 16.133 0
                    CHANNELS 3 Zrotation Xrotation Yrotation
                    End Site
                    {
                      OFFSET 0 0 0
                    }
                  }
                }
              }
            }
          }
        }
        JOINT LeftShoulder
        {
          OFFSET 4.2188 10.82 -0.587439
          CHANNELS 3 Zrotation Xrotation Yrotation
          JOINT LeftArm
          {
            OFFSET 0 14.1914 0
            CHANNELS 3 Zrotation Xrotation Yrotation
            JOINT LeftArmRoll
            {
              OFFSET 0 7.16408 0
              CHANNELS 3 Zrotation Xrotation Yrotation
              JOINT LeftForeArm
              {
                OFFSET 0 20.8665 0
                CHANNELS 3 Zrotation Xrotation Yrotation
                JOINT LeftForeArmRoll
                {
                  OFFSET 0 8.03921 0
                  CHANNELS 3 Zrotation Xrotation Yrotation
                  JOINT LeftHand
                  {
                    OFFSET 0 16.133 0
                    CHANNELS 3 Zrotation Xrotation Yrotation
                    End Site
                    {
                      OFFSET 0 0 0
                    }
                  }
                }
              }
            }
          }
        }
      }
    }
  }
  JOINT RightUpLeg
  {
    OFFSET -7.35773 -1.34921 -1.13182
    CHANNELS 3 Zrotation Xrotation Yrotation
    JOINT RightUpLegRoll
    {
      OFFSET 0 18.9168 0
      CHANNELS 3 Zrotation Xrotation Yrotation
      JOINT RightLeg
      {
        OFFSET 0 -23.4256 0
        CHANNELS 3 Zrotation Xrotation Yrotation
        JOINT RightLegRoll
        {
          OFFSET 0 23.5023 0
          CHANNELS 3 Zrotation Xrotation Yrotation
          JOINT RightFoot
          {
            OFFSET 0 19.5617 0
            CHANNELS 3 Zrotation Xrotation Yrotation
            JOINT RightToeBase
            {
              OFFSET 0 16.3526 0
              CHANNELS 3 Zrotation Xrotation Yrotation
              End Site
              {
                OFFSET 0.00693125 7.91944 -0.912837
              }
            }
          }
        }
      }
    }
  }
  JOINT LeftUpLeg
  {
    OFFSET 7.35773 -1.34921 -1.13182
    CHANNELS 3 Zrotation Xrotation Yrotation
    JOINT LeftUpLegRoll
    {
      OFFSET 0 18.9169 0
      CHANNELS 3 Zrotation Xrotation Yrotation
      JOINT LeftLeg
      {
        OFFSET 0 23.4255 0
        CHANNELS 3 Zrotation Xrotation Yrotation
        JOINT LeftLegRoll
        {
          OFFSET 0 23.7195 0
          CHANNELS 3 Zrotation Xrotation Yrotation
          JOINT LeftFoot
          {
            OFFSET 0 19.3444 0
            CHANNELS 3 Zrotation Xrotation Yrotation
            JOINT LeftToeBase
            {
              OFFSET 0 16.3526 0
              CHANNELS 3 Zrotation Xrotation Yrotation
              End Site
              {
                OFFSET -0.0310629 7.91944 -0.912837
              }
            }
          }
        }
      }
    }
  }
}
MOTION
Frames: 6
Frame Time: 0.00208333
38.0728 98.8349 2.81227 0.687136 -0.996788 -1.36957 -0.147173 -1.72798 0.0974765 -0.293971 0.555266 0.204527 -0.296584 2.20032 0.209497 -3.10076 35.5444 -0.230134 1.23466 -20.2479 -1.27032 31.1257 -11.0812 -7.21445 34.3754 43.1016 65.8565 -3.18055e-015 3.18055e-015 3.18055e-015 -175.979 47.0647 -173.073 -9.5878e-007 1.34095e-006 -3.00526 8.03026 -4.95139 0.697635 -69.6872 1.77213 0.430027 -96.9011 10.1309 -18.6226 -4.77083e-015 -1.59028e-015 -0 -9.5759 5.24106 1.04791 1.20172e-005 -3.88586e-006 3 -8.02903 -4.95143 -0.697677 176.22 1.15595 0.777508 180 7.01556e-015 178.964 175.982 4.99507 179.753 4.31939e-007 -8.76743e-006 0.0572153 -18.4718 67.7622 19.3486 8.13649 25.2327 -3.48774 -175.77 0.447021 0.691992 4.54188e-006 -4.6773e-006 -1.12944 -3.96772 -8.75946 0.362198 5.78419e-006 -2.59003e-006 -0.116162 18.4107 67.6053 -19.1908 -8.13649 25.2327 3.48774 
38.0714 98.8104 2.80901 0.683555 -0.998245 -1.37481 -0.146905 -1.72735 0.0976406 -0.293114 0.556551 0.204895 -0.295729 2.20161 0.209846 -3.18365 35.5299 -0.196306 1.30674 -20.2372 -1.2541 31.116 -11.0745 -7.20758 34.4494 43.0924 65.6981 -1.27222e-014 -4.77083e-015 1.59028e-014 -176.006 46.8506 -173.098 -9.5878e-007 1.34095e-006 -3.00526 8.03026 -4.95139 0.697635 -69.696 1.76125 0.436485 -96.9068 10.1305 -18.6183 -7.95139e-015 -1.59028e-015 -3.18055e-015 -9.57811 5.24937 1.04894 1.20172e-005 -3.88586e-006 3 -8.02903 -4.95143 -0.697677 176.229 1.15454 0.767232 180 7.01556e-015 178.964 175.99 4.99383 179.752 4.31939e-007 -8.76743e-006 0.0572123 -18.4723 67.7627 19.3492 8.13649 25.2327 -3.48774 -175.765 0.443128 0.692715 4.54188e-006 -4.6773e-006 -1.12946 -3.96391 -8.75586 0.363158 5.78419e-006 -2.59003e-006 -0.116213 18.4132 67.6085 -19.1936 -8.13649 25.2327 3.48774 
38.0686 98.8189 2.81244 0.679864 -1.00013 -1.37966 -0.146585 -1.72663 0.0978229 -0.292237 0.558025 0.205303 -0.294855 2.20308 0.210238 -3.26069 35.5157 -0.165646 1.37461 -20.227 -1.23952 31.1094 -11.0674 -7.2003 34.5192 43.0834 65.5459 -6.36111e-015 7.95139e-015 -0 -176.032 46.641 -173.12 -9.5878e-007 1.34095e-006 -3.00526 8.03026 -4.95139 0.697635 -69.7042 1.75098 0.442578 -96.9126 10.1302 -18.6141 7.95139e-015 7.95139e-015 -0 -9.58008 5.25745 1.04995 1.20172e-005 -3.88586e-006 3 -8.02903 -4.95143 -0.697677 176.238 1.15265 0.757987 180 7.01556e-015 178.964 175.997 4.9926 179.752 4.31939e-007 -8.76743e-006 0.0572092 -18.4728 67.7632 19.3498 8.13649 25.2327 -3.48774 -175.761 0.439577 0.692537 4.54188e-006 -4.6773e-006 -1.12949 -3.96082 -8.75375 0.363951 5.78419e-006 -2.59003e-006 -0.116264 18.4157 67.6115 -19.1962 -8.13649 25.2327 3.48774 
38.0665 98.8173 2.81157 0.676076 -1.00247 -1.38408 -0.146212 -1.72581 0.0980253 -0.291355 0.559692 0.205752 -0.293978 2.20475 0.210671 -3.33104 35.502 -0.138631 1.43761 -20.2174 -1.22687 31.1062 -11.0599 -7.19254 34.5846 43.0748 65.4003 -3.18055e-015 6.36111e-015 -0 -176.058 46.4341 -173.139 -9.5878e-007 1.34095e-006 -3.00526 8.03026 -4.95139 0.697635 -69.712 1.74141 0.448279 -96.918 10.1302 -18.6103 9.54166e-015 6.36111e-015 -6.36111e-015 -9.58179 5.26531 1.05092 1.20172e-005 -3.88586e-006 3 -8.02903 -4.95143 -0.697677 176.247 1.15024 0.749965 180 7.01556e-015 178.964 176.003 4.99136 179.751 4.31939e-007 -8.76743e-006 0.0572062 -18.4733 67.7637 19.3505 8.13649 25.2327 -3.48774 -175.755 0.436498 0.691237 4.54188e-006 -4.6773e-006 -1.12952 -3.95864 -8.75347 0.364537 5.78419e-006 -2.59003e-006 -0.116317 18.418 67.6144 -19.1987 -8.13649 25.2327 3.48774 
38.0648 98.8179 2.80309 0.672075 -1.00533 -1.38817 -0.145758 -1.72488 0.0982418 -0.29041 0.561606 0.206257 -0.293039 2.20666 0.211162 -3.39589 35.4884 -0.114764 1.49703 -20.2084 -1.21582 31.1071 -11.0517 -7.18406 34.647 43.066 65.2555 -9.54166e-015 1.90833e-014 1.27222e-014 -176.085 46.2276 -173.158 -9.5878e-007 1.34095e-006 -3.00526 8.03026 -4.95139 0.697635 -69.719 1.73235 0.453637 -96.9237 10.1303 -18.6066 -1.70955e-014 -7.95139e-015 -3.18055e-015 -9.58321 5.27314 1.0519 1.20172e-005 -3.88586e-006 3 -8.02903 -4.95143 -0.697677 176.255 1.14725 0.742938 180 7.01556e-015 178.964 176.008 4.99016 179.751 4.31939e-007 -8.76743e-006 0.0572032 -18.4739 67.7643 19.3511 8.13649 25.2327 -3.48774 -175.75 0.433561 0.689094 4.54188e-006 -4.6773e-006 -1.12957 -3.95707 -8.75448 0.364982 5.78419e-006 -2.59003e-006 -0.11637 18.4203 67.6171 -19.2011 -8.13649 25.2327 3.48774 
38.0627 98.8133 2.80498 0.667763 -1.00873 -1.39203 -0.145198 -1.72383 0.0984658 -0.289338 0.563801 0.206831 -0.291974 2.20886 0.211722 -3.45702 35.4747 -0.0931325 1.55458 -20.1997 -1.2058 31.1124 -11.0428 -7.17477 34.708 43.0568 65.1071 3.18055e-015 2.22639e-014 3.18055e-015 -176.112 46.0216 -173.181 -9.5878e-007 1.34095e-006 -3.00526 8.03026 -4.95139 0.697635 -69.725 1.72358 0.458725 -96.9302 10.1305 -18.6029 -4.77083e-015 -1.59028e-015 -3.18055e-015 -9.58431 5.28112 1.05292 1.20172e-005 -3.88586e-006 3 -8.02903 -4.95143 -0.697677 176.263 1.14368 0.736513 180 7.01556e-015 178.964 176.012 4.98901 179.751 4.31939e-007 -8.76743e-006 0.0572002 -18.4745 67.7649 19.3518 8.13649 25.2327 -3.48774 -175.744 0.430373 0.686563 4.54188e-006 -4.6773e-006 -1.12962 -3.95562 -8.75604 0.365378 5.78419e-006 -2.59003e-006 -0.116425 18.4225 67.6199 -19.2034 -8.13649 25.2327 3.48774 
